<svg width="22" height="23" viewBox="0 0 22 23" fill="none" xmlns="http://www.w3.org/2000/svg">
<path d="M9.94579 3.46289H2.98795C2.46072 3.46289 1.95507 3.67234 1.58226 4.04515C1.20944 4.41796 1 4.92361 1 5.45084V19.3665C1 19.8938 1.20944 20.3994 1.58226 20.7722C1.95507 21.145 2.46072 21.3545 2.98795 21.3545H16.9036C17.4309 21.3545 17.9365 21.145 18.3093 20.7722C18.6821 20.3994 18.8916 19.8938 18.8916 19.3665V12.4087" stroke="#B2C2CB" stroke-width="1.5" stroke-linecap="round" stroke-linejoin="round"/>
<path d="M17.4006 1.97207C17.7961 1.57664 18.3324 1.35449 18.8916 1.35449C19.4508 1.35449 19.9871 1.57664 20.3826 1.97207C20.778 2.3675 21.0001 2.90382 21.0001 3.46304C21.0001 4.02226 20.778 4.55857 20.3826 4.954L10.9398 14.3968L6.96387 15.3908L7.95784 11.4149L17.4006 1.97207Z" stroke="#B2C2CB" stroke-width="1.5" stroke-linecap="round" stroke-linejoin="round"/>
</svg>
