<svg width="32" height="26" viewBox="0 0 32 26" fill="none" xmlns="http://www.w3.org/2000/svg">
<path fill-rule="evenodd" clip-rule="evenodd" d="M14.6498 7.36323C14.6498 3.58422 17.7133 0.520752 21.4923 0.520752C23.7111 0.520752 25.4814 1.5689 26.6674 3.09188C27.9218 2.83475 29.1245 2.36954 30.2254 1.71551C29.7991 3.042 28.9067 4.16916 27.7133 4.88839L27.7177 4.89495C28.8506 4.75808 29.9567 4.45351 31 3.99123L30.9978 3.9956C30.2604 5.10064 29.3348 6.07439 28.2669 6.8687C28.3238 7.25601 28.3545 7.64332 28.3545 8.02845C28.3545 16.0963 22.2078 25.4793 10.9036 25.4793C7.57036 25.4822 4.30678 24.525 1.50314 22.7222C1.37115 22.6375 1.25891 22.5254 1.17404 22.3935C1.08917 22.2616 1.03364 22.113 1.01123 21.9577C0.988816 21.8025 1.00004 21.6443 1.04414 21.4938C1.08824 21.3433 1.16418 21.204 1.26682 21.0854C1.36442 20.9231 1.50674 20.7924 1.67673 20.709C1.84672 20.6255 2.03717 20.5929 2.22524 20.6149C4.22963 20.8513 6.22964 20.6062 7.99551 19.8359C7.12452 19.4511 6.34477 18.8864 5.70743 18.1789C5.0701 17.4715 4.5896 16.6372 4.29747 15.7309C4.24345 15.5623 4.23587 15.3823 4.27554 15.2098C4.3152 15.0373 4.40064 14.8786 4.52285 14.7506C3.80372 14.1195 3.2277 13.342 2.83334 12.4703C2.43898 11.5986 2.23539 10.6526 2.23619 9.69585V9.62145C2.23613 9.39253 2.31584 9.17075 2.46161 8.99423C2.60737 8.81772 2.81008 8.69751 3.03488 8.65427C2.53877 7.69688 2.28057 6.63408 2.28214 5.55579C2.28214 4.53171 2.2887 3.24068 3.00862 2.07656C3.08554 1.95323 3.1888 1.84846 3.311 1.76977C3.4332 1.69108 3.57131 1.64041 3.71541 1.62141C3.92435 1.55552 4.14827 1.55386 4.35816 1.61668C4.56805 1.67949 4.75426 1.80387 4.89265 1.97371C7.33188 4.97436 10.8207 6.93544 14.652 7.45951V7.36323H14.6498ZM10.9036 23.2911C8.33312 23.2749 4.90827 22.5001 4.89265 22.3935C4.87704 22.2868 9.52284 22.3935 11.5478 19.7024C11.6877 19.5164 11.6026 19.2994 11.5379 19.1066C11.4731 18.9137 11.3502 18.7457 11.1861 18.6255C11.022 18.5054 10.8247 18.439 10.6213 18.4355C9.88877 18.4223 9.16914 18.2401 8.51857 17.903C7.868 17.566 7.30408 17.0832 6.87078 16.4924C7.28654 16.4596 7.69354 16.3873 8.08742 16.2823C8.30213 16.2249 8.4911 16.0966 8.62362 15.9181C8.75613 15.7397 8.82439 15.5217 8.81729 15.2996C8.81019 15.0774 8.72815 14.8642 8.58451 14.6946C8.44087 14.525 8.24408 14.409 8.02615 14.3655C7.19367 14.1968 6.42131 13.8089 5.78889 13.2419C5.15647 12.6749 4.68692 11.9493 4.42876 11.1401C4.8664 11.2451 5.32373 11.3085 5.792 11.3239C6.00599 11.3311 6.2165 11.2683 6.39163 11.1451C6.56676 11.0219 6.69697 10.845 6.76252 10.6412C6.82807 10.4374 6.8254 10.2177 6.75491 10.0156C6.68442 9.81337 6.54995 9.63968 6.37187 9.52079C5.71892 9.08579 5.18352 8.49625 4.81323 7.80454C4.44294 7.11283 4.24924 6.34037 4.24932 5.55579C4.24932 5.18817 4.25589 4.86213 4.27777 4.56454C7.33965 7.68925 11.4664 9.5456 15.8358 9.76368C16.0045 9.77226 16.173 9.74165 16.3279 9.67425C16.4828 9.60685 16.62 9.50449 16.7287 9.3752C16.8375 9.2459 16.9148 9.09317 16.9546 8.92899C16.9945 8.76482 16.9957 8.59364 16.9584 8.42888C16.7976 7.74562 16.7936 7.03486 16.9464 6.3498C17.0992 5.66474 17.405 5.02311 17.8409 4.47295C18.2768 3.92278 18.8315 3.47833 19.4634 3.17285C20.0953 2.86737 20.7882 2.70878 21.4901 2.70895C24.1903 2.70895 26.1641 5.21005 26.1641 8.03063C26.1641 15.1554 19.4634 23.3449 10.9036 23.2911Z" fill="#B2C2CB"/>
<path fill-rule="evenodd" clip-rule="evenodd" d="M14.6498 7.36323C14.6498 3.58422 17.7133 0.520752 21.4923 0.520752C23.7111 0.520752 25.4814 1.5689 26.6674 3.09188C27.9218 2.83475 29.1245 2.36954 30.2254 1.71551C29.7991 3.042 28.9067 4.16916 27.7133 4.88839L27.7177 4.89495C28.8506 4.75808 29.9567 4.45351 31 3.99123L30.9978 3.9956C30.2604 5.10064 29.3348 6.07439 28.2669 6.8687C28.3238 7.25601 28.3545 7.64332 28.3545 8.02845C28.3545 16.0963 22.2078 25.4793 10.9036 25.4793C7.57036 25.4822 4.30678 24.525 1.50314 22.7222C1.37115 22.6375 1.25891 22.5254 1.17404 22.3935C1.08917 22.2616 1.03364 22.113 1.01123 21.9577C0.988816 21.8025 1.00004 21.6443 1.04414 21.4938C1.08824 21.3433 1.16418 21.204 1.26682 21.0854C1.36442 20.9231 1.50674 20.7924 1.67673 20.709C1.84672 20.6255 2.03717 20.5929 2.22524 20.6149C4.22963 20.8513 6.22964 20.6062 7.99551 19.8359C7.12452 19.4511 6.34477 18.8864 5.70743 18.1789C5.0701 17.4715 4.5896 16.6372 4.29747 15.7309C4.24345 15.5623 4.23587 15.3823 4.27554 15.2098C4.3152 15.0373 4.40064 14.8786 4.52285 14.7506C3.80372 14.1195 3.2277 13.342 2.83334 12.4703C2.43898 11.5986 2.23539 10.6526 2.23619 9.69585V9.62145C2.23613 9.39253 2.31584 9.17075 2.46161 8.99423C2.60737 8.81772 2.81008 8.69751 3.03488 8.65427C2.53877 7.69688 2.28057 6.63408 2.28214 5.55579C2.28214 4.53171 2.2887 3.24068 3.00862 2.07656C3.08554 1.95323 3.1888 1.84846 3.311 1.76977C3.4332 1.69108 3.57131 1.64041 3.71541 1.62141C3.92435 1.55552 4.14827 1.55386 4.35816 1.61668C4.56805 1.67949 4.75426 1.80387 4.89265 1.97371C7.33188 4.97436 10.8207 6.93544 14.652 7.45951V7.36323H14.6498ZM10.9036 23.2911C8.33312 23.2749 4.90827 22.5001 4.89265 22.3935C4.87704 22.2868 9.52284 22.3935 11.5478 19.7024C11.6877 19.5164 11.6026 19.2994 11.5379 19.1066C11.4731 18.9137 11.3502 18.7457 11.1861 18.6255C11.022 18.5054 10.8247 18.439 10.6213 18.4355C9.88877 18.4223 9.16914 18.2401 8.51857 17.903C7.868 17.566 7.30408 17.0832 6.87078 16.4924C7.28654 16.4596 7.69354 16.3873 8.08742 16.2823C8.30213 16.2249 8.4911 16.0966 8.62362 15.9181C8.75613 15.7397 8.82439 15.5217 8.81729 15.2996C8.81019 15.0774 8.72815 14.8642 8.58451 14.6946C8.44087 14.525 8.24408 14.409 8.02615 14.3655C7.19367 14.1968 6.42131 13.8089 5.78889 13.2419C5.15647 12.6749 4.68692 11.9493 4.42876 11.1401C4.8664 11.2451 5.32373 11.3085 5.792 11.3239C6.00599 11.3311 6.2165 11.2683 6.39163 11.1451C6.56676 11.0219 6.69697 10.845 6.76252 10.6412C6.82807 10.4374 6.8254 10.2177 6.75491 10.0156C6.68442 9.81337 6.54995 9.63968 6.37187 9.52079C5.71892 9.08579 5.18352 8.49625 4.81323 7.80454C4.44294 7.11283 4.24924 6.34037 4.24932 5.55579C4.24932 5.18817 4.25589 4.86213 4.27777 4.56454C7.33965 7.68925 11.4664 9.5456 15.8358 9.76368C16.0045 9.77226 16.173 9.74165 16.3279 9.67425C16.4828 9.60685 16.62 9.50449 16.7287 9.3752C16.8375 9.2459 16.9148 9.09317 16.9546 8.92899C16.9945 8.76482 16.9957 8.59364 16.9584 8.42888C16.7976 7.74562 16.7936 7.03486 16.9464 6.3498C17.0992 5.66474 17.405 5.02311 17.8409 4.47295C18.2768 3.92278 18.8315 3.47833 19.4634 3.17285C20.0953 2.86737 20.7882 2.70878 21.4901 2.70895C24.1903 2.70895 26.1641 5.21005 26.1641 8.03063C26.1641 15.1554 19.4634 23.3449 10.9036 23.2911Z" stroke="#2E333A" stroke-width="0.5"/>
</svg>
