<svg width="30" height="8" viewBox="0 0 30 8" fill="none" xmlns="http://www.w3.org/2000/svg">
<path d="M0.2 4C0.2 2.04796 1.79796 0.45 3.75 0.45C5.70204 0.45 7.3 2.04796 7.3 4C7.3 5.95204 5.70204 7.55 3.75 7.55C1.79796 7.55 0.2 5.95204 0.2 4ZM22.7 4C22.7 2.04796 24.298 0.45 26.25 0.45C28.202 0.45 29.8 2.04796 29.8 4C29.8 5.95204 28.202 7.55 26.25 7.55C24.298 7.55 22.7 5.95204 22.7 4ZM11.45 4C11.45 2.04796 13.048 0.45 15 0.45C16.952 0.45 18.55 2.04796 18.55 4C18.55 5.95204 16.952 7.55 15 7.55C13.048 7.55 11.45 5.95204 11.45 4Z" fill="#B2C2CB" stroke="#2E333A" stroke-width="0.4"/>
</svg>
