<svg width="31" height="32" viewBox="0 0 31 32" fill="none" xmlns="http://www.w3.org/2000/svg">
<path d="M23.8787 4.19413L23.8831 4.44409L24.133 4.43972L27.4659 4.38155C29.1609 4.35196 30.573 5.7156 30.6025 7.4106L30.6316 9.07702C30.7035 13.1963 27.6606 16.6138 23.6743 17.185L23.5312 17.2054L23.4776 17.3397C22.5016 19.7818 20.3509 21.6466 17.7262 22.2259L17.5265 22.2699L17.5301 22.4744L17.6203 27.6403L17.6246 27.8902L17.8746 27.8859L22.8738 27.7986C23.6562 27.7849 24.3014 28.408 24.315 29.1903C24.3287 29.9726 23.7056 30.6178 22.9233 30.6315L9.592 30.8642C8.80972 30.8778 8.16448 30.2548 8.15082 29.4725C8.13717 28.6902 8.76027 28.0449 9.54255 28.0313L14.5418 27.944L14.7917 27.9397L14.7874 27.6897L14.6972 22.5238L14.6936 22.3194L14.4926 22.2823C11.8493 21.795 9.63474 20.0064 8.57417 17.5998L8.51589 17.4675L8.3722 17.452C4.36836 17.0204 1.20802 13.7111 1.13612 9.59186L1.10703 7.92545C1.07745 6.23044 2.44108 4.81836 4.13609 4.78877L7.46891 4.7306L7.71887 4.72624L7.71451 4.47627C7.68479 2.77365 9.04094 1.36932 10.7436 1.3396L20.742 1.16507C22.4447 1.13535 23.849 2.4915 23.8787 4.19413ZM4.18553 7.62167L3.93557 7.62604L3.93994 7.876L3.96902 9.54241C4.00878 11.8201 5.51396 13.7175 7.55284 14.4157L7.89002 14.5311L7.8838 14.1748L7.77269 7.8091L7.76832 7.55914L7.51836 7.5635L4.18553 7.62167ZM10.793 4.1725L10.543 4.17686L10.5474 4.42682L10.7219 14.4253C10.7723 17.3129 13.1751 19.6333 16.0628 19.5829C18.9504 19.5325 21.2707 17.1297 21.2203 14.2421L21.0458 4.24357L21.0415 3.99361L20.7915 3.99798L10.793 4.1725ZM24.048 13.8926L24.0542 14.249L24.3872 14.1218C26.4004 13.3529 27.8385 11.4042 27.7987 9.12646L27.7696 7.46005L27.7653 7.21009L27.5153 7.21445L24.1825 7.27263L23.9325 7.27699L23.9369 7.52695L24.048 13.8926Z" fill="#B2C2CB" stroke="#2E333A" stroke-width="0.5"/>
</svg>
