<svg width="30" height="30" viewBox="0 0 30 30" fill="none" xmlns="http://www.w3.org/2000/svg">
<path d="M18.5664 2.6264L18.425 2.48499L18.2836 2.62641L14.1031 6.80695L13.9616 6.94837L14.1031 7.08979L14.5678 7.55449C14.5678 7.55449 14.5678 7.55449 14.5678 7.5545C15.0301 8.01685 15.0301 8.76646 14.5678 9.2288L14.7092 9.37022L14.5678 9.2288C14.1055 9.69115 13.3558 9.69115 12.8935 9.2288L12.8935 9.22879L12.4287 8.7641L12.2873 8.62269L12.1459 8.76411L2.62641 18.2836L2.48498 18.425L2.62641 18.5664L3.82312 19.7631L3.96095 19.9009L4.10227 19.7667C5.80128 18.153 8.48722 18.1793 10.154 19.8461L10.2954 19.7047L10.154 19.8461C11.8207 21.5128 11.8471 24.1988 10.2333 25.8977L10.099 26.039L10.2369 26.1769L11.4336 27.3737L11.575 27.5151L11.7164 27.3737L21.2359 17.8541L21.3773 17.7127L21.2359 17.5713L20.505 16.8403L20.505 16.8403C20.0426 16.378 20.0426 15.6283 20.505 15.166L20.505 15.166C20.9673 14.7037 21.717 14.7037 22.1793 15.166L22.9103 15.897L23.0517 16.0384L23.1931 15.897L27.3737 11.7164L27.5151 11.575L27.3737 11.4336L26.0598 10.1197L25.9525 10.0124L25.8202 10.0869C24.1674 11.0174 22.0345 10.7788 20.6278 9.37217C19.2212 7.96554 18.9826 5.83257 19.9132 4.17975L19.9876 4.04751L19.8803 3.94021L18.5664 2.6264ZM20.2407 0.952098L20.3821 0.810681L20.2407 0.952105L22.415 3.1263C22.8773 3.58864 22.8773 4.33827 22.415 4.80061L22.415 4.80062L22.3022 4.91341C21.5332 5.68231 21.5332 6.92894 22.3022 7.69786C23.071 8.46678 24.3177 8.46676 25.0866 7.69787L25.0866 7.69785L25.1994 7.58505C25.6617 7.12271 26.4114 7.12271 26.8737 7.58505L27.0151 7.44363L26.8737 7.58505L29.048 9.75928C30.0507 10.7621 30.0507 12.3879 29.0479 13.3908L13.3908 29.048C12.3879 30.0507 10.7621 30.0507 9.75927 29.0479L7.58507 26.8737L7.44364 27.0151L7.58506 26.8737C7.12272 26.4114 7.12272 25.6617 7.58506 25.1994L7.44364 25.058L7.58506 25.1994L8.47965 24.3048L8.33823 24.1634L8.47966 24.3048C9.24854 23.5359 9.24856 22.2892 8.47964 21.5204C7.71073 20.7515 6.4641 20.7515 5.6952 21.5204L4.80062 22.415C4.33828 22.8773 3.58865 22.8773 3.12631 22.415L0.952105 20.2407L0.810681 20.3821L0.952098 20.2407C-0.0506994 19.238 -0.0506994 17.612 0.952098 16.6093L0.810681 16.4679L0.952103 16.6093L16.6093 0.952103L16.4679 0.810681L16.6093 0.952098C17.612 -0.0506994 19.238 -0.0506994 20.2407 0.952098ZM16.0073 10.6683L16.0073 10.6683C16.4696 10.206 17.2193 10.206 17.6816 10.6683L19.0655 12.0522C19.5278 12.5146 19.5278 13.2642 19.0655 13.7265C18.6032 14.1888 17.8535 14.1888 17.3912 13.7265L16.0073 12.3426L16.0073 12.3426C15.5449 11.8802 15.5449 11.1307 16.0073 10.6683Z" fill="#B2C2CB" stroke="#2E333A" stroke-width="0.4"/>
</svg>
