<svg width="30" height="30" viewBox="0 0 30 30" fill="none" xmlns="http://www.w3.org/2000/svg">
<mask id="path-1-inside-1_103_4708" fill="white">
<path d="M17.731 30H12.271C11.9289 30.0001 11.5971 29.8832 11.3305 29.6687C11.064 29.4543 10.8788 29.1552 10.8055 28.821L10.195 25.995C9.38063 25.6382 8.6084 25.1919 7.89255 24.6645L5.13705 25.542C4.81089 25.646 4.45897 25.6353 4.13973 25.5117C3.82048 25.3881 3.55312 25.159 3.38205 24.8625L0.646047 20.136C0.476765 19.8392 0.413221 19.4937 0.465811 19.1561C0.518401 18.8185 0.684011 18.5087 0.935547 18.2775L3.07305 16.3275C2.97584 15.4442 2.97584 14.5528 3.07305 13.6695L0.935547 11.724C0.683654 11.4927 0.517819 11.1826 0.465221 10.8447C0.412622 10.5067 0.476381 10.161 0.646047 9.864L3.37605 5.1345C3.54712 4.83797 3.81448 4.60889 4.13373 4.48528C4.45297 4.36168 4.80489 4.35099 5.13105 4.455L7.88654 5.3325C8.25254 5.0625 8.63354 4.8105 9.02654 4.5825C9.40604 4.3695 9.79604 4.176 10.195 4.0035L10.807 1.1805C10.8799 0.846296 11.0648 0.547032 11.3311 0.332323C11.5973 0.117615 11.929 0.000359949 12.271 0H17.731C18.0731 0.000359949 18.4048 0.117615 18.671 0.332323C18.9373 0.547032 19.1222 0.846296 19.195 1.1805L19.813 4.005C20.627 4.36185 21.3987 4.80809 22.114 5.3355L24.871 4.458C25.197 4.35437 25.5486 4.36526 25.8675 4.48884C26.1864 4.61243 26.4535 4.84129 26.6245 5.1375L29.3545 9.867C29.7025 10.4775 29.5825 11.25 29.065 11.7255L26.9275 13.6755C27.0247 14.5588 27.0247 15.4502 26.9275 16.3335L29.065 18.2835C29.5825 18.7605 29.7025 19.5315 29.3545 20.142L26.6245 24.8715C26.4535 25.168 26.1861 25.3971 25.8669 25.5207C25.5476 25.6443 25.1957 25.655 24.8695 25.551L22.114 24.6735C21.3987 25.2005 20.627 25.6463 19.813 26.0025L19.195 28.821C19.1219 29.1549 18.9369 29.4538 18.6706 29.6683C18.4044 29.8827 18.0729 29.9997 17.731 30ZM8.43104 21.3435L9.66104 22.2435C9.93854 22.4475 10.2265 22.635 10.5265 22.806C10.8085 22.9695 11.0965 23.1165 11.395 23.25L12.7945 23.8635L13.48 27H16.525L17.2105 23.862L18.61 23.2485C19.2205 22.9785 19.801 22.644 20.3395 22.2495L21.5695 21.3495L24.6325 22.3245L26.155 19.6875L23.7805 17.523L23.9485 16.005C24.0235 15.3405 24.0235 14.67 23.9485 14.007L23.7805 12.489L26.1565 10.32L24.6325 7.6815L21.571 8.6565L20.3395 7.7565C19.8007 7.36004 19.2209 7.0226 18.61 6.75L17.2105 6.1365L16.525 3H13.48L12.79 6.138L11.395 6.75C10.7833 7.01791 10.2033 7.35297 9.66554 7.749L8.43404 8.649L5.37404 7.674L3.84855 10.32L6.22304 12.4815L6.05505 14.001C5.98005 14.6655 5.98005 15.336 6.05505 15.999L6.22304 17.517L3.84855 19.6815L5.37105 22.3185L8.43104 21.3435ZM14.995 21C13.4037 21 11.8776 20.3679 10.7524 19.2426C9.62718 18.1174 8.99504 16.5913 8.99504 15C8.99504 13.4087 9.62718 11.8826 10.7524 10.7574C11.8776 9.63214 13.4037 9 14.995 9C16.5863 9 18.1125 9.63214 19.2377 10.7574C20.3629 11.8826 20.995 13.4087 20.995 15C20.995 16.5913 20.3629 18.1174 19.2377 19.2426C18.1125 20.3679 16.5863 21 14.995 21ZM14.995 12C14.4076 12.0006 13.8332 12.1737 13.3432 12.4977C12.8532 12.8218 12.4691 13.2826 12.2386 13.8229C12.0081 14.3633 11.9414 14.9594 12.0466 15.5374C12.1518 16.1154 12.4244 16.6497 12.8306 17.0741C13.2368 17.4986 13.7586 17.7944 14.3314 17.925C14.9042 18.0555 15.5027 18.015 16.0526 17.8085C16.6026 17.602 17.0798 17.2386 17.4251 16.7633C17.7704 16.2881 17.9686 15.7219 17.995 15.135V15.735V15C17.995 14.2044 17.679 13.4413 17.1164 12.8787C16.5538 12.3161 15.7907 12 14.995 12Z"/>
</mask>
<path d="M17.731 30H12.271C11.9289 30.0001 11.5971 29.8832 11.3305 29.6687C11.064 29.4543 10.8788 29.1552 10.8055 28.821L10.195 25.995C9.38063 25.6382 8.6084 25.1919 7.89255 24.6645L5.13705 25.542C4.81089 25.646 4.45897 25.6353 4.13973 25.5117C3.82048 25.3881 3.55312 25.159 3.38205 24.8625L0.646047 20.136C0.476765 19.8392 0.413221 19.4937 0.465811 19.1561C0.518401 18.8185 0.684011 18.5087 0.935547 18.2775L3.07305 16.3275C2.97584 15.4442 2.97584 14.5528 3.07305 13.6695L0.935547 11.724C0.683654 11.4927 0.517819 11.1826 0.465221 10.8447C0.412622 10.5067 0.476381 10.161 0.646047 9.864L3.37605 5.1345C3.54712 4.83797 3.81448 4.60889 4.13373 4.48528C4.45297 4.36168 4.80489 4.35099 5.13105 4.455L7.88654 5.3325C8.25254 5.0625 8.63354 4.8105 9.02654 4.5825C9.40604 4.3695 9.79604 4.176 10.195 4.0035L10.807 1.1805C10.8799 0.846296 11.0648 0.547032 11.3311 0.332323C11.5973 0.117615 11.929 0.000359949 12.271 0H17.731C18.0731 0.000359949 18.4048 0.117615 18.671 0.332323C18.9373 0.547032 19.1222 0.846296 19.195 1.1805L19.813 4.005C20.627 4.36185 21.3987 4.80809 22.114 5.3355L24.871 4.458C25.197 4.35437 25.5486 4.36526 25.8675 4.48884C26.1864 4.61243 26.4535 4.84129 26.6245 5.1375L29.3545 9.867C29.7025 10.4775 29.5825 11.25 29.065 11.7255L26.9275 13.6755C27.0247 14.5588 27.0247 15.4502 26.9275 16.3335L29.065 18.2835C29.5825 18.7605 29.7025 19.5315 29.3545 20.142L26.6245 24.8715C26.4535 25.168 26.1861 25.3971 25.8669 25.5207C25.5476 25.6443 25.1957 25.655 24.8695 25.551L22.114 24.6735C21.3987 25.2005 20.627 25.6463 19.813 26.0025L19.195 28.821C19.1219 29.1549 18.9369 29.4538 18.6706 29.6683C18.4044 29.8827 18.0729 29.9997 17.731 30ZM8.43104 21.3435L9.66104 22.2435C9.93854 22.4475 10.2265 22.635 10.5265 22.806C10.8085 22.9695 11.0965 23.1165 11.395 23.25L12.7945 23.8635L13.48 27H16.525L17.2105 23.862L18.61 23.2485C19.2205 22.9785 19.801 22.644 20.3395 22.2495L21.5695 21.3495L24.6325 22.3245L26.155 19.6875L23.7805 17.523L23.9485 16.005C24.0235 15.3405 24.0235 14.67 23.9485 14.007L23.7805 12.489L26.1565 10.32L24.6325 7.6815L21.571 8.6565L20.3395 7.7565C19.8007 7.36004 19.2209 7.0226 18.61 6.75L17.2105 6.1365L16.525 3H13.48L12.79 6.138L11.395 6.75C10.7833 7.01791 10.2033 7.35297 9.66554 7.749L8.43404 8.649L5.37404 7.674L3.84855 10.32L6.22304 12.4815L6.05505 14.001C5.98005 14.6655 5.98005 15.336 6.05505 15.999L6.22304 17.517L3.84855 19.6815L5.37105 22.3185L8.43104 21.3435ZM14.995 21C13.4037 21 11.8776 20.3679 10.7524 19.2426C9.62718 18.1174 8.99504 16.5913 8.99504 15C8.99504 13.4087 9.62718 11.8826 10.7524 10.7574C11.8776 9.63214 13.4037 9 14.995 9C16.5863 9 18.1125 9.63214 19.2377 10.7574C20.3629 11.8826 20.995 13.4087 20.995 15C20.995 16.5913 20.3629 18.1174 19.2377 19.2426C18.1125 20.3679 16.5863 21 14.995 21ZM14.995 12C14.4076 12.0006 13.8332 12.1737 13.3432 12.4977C12.8532 12.8218 12.4691 13.2826 12.2386 13.8229C12.0081 14.3633 11.9414 14.9594 12.0466 15.5374C12.1518 16.1154 12.4244 16.6497 12.8306 17.0741C13.2368 17.4986 13.7586 17.7944 14.3314 17.925C14.9042 18.0555 15.5027 18.015 16.0526 17.8085C16.6026 17.602 17.0798 17.2386 17.4251 16.7633C17.7704 16.2881 17.9686 15.7219 17.995 15.135V15.735V15C17.995 14.2044 17.679 13.4413 17.1164 12.8787C16.5538 12.3161 15.7907 12 14.995 12Z" fill="#B2C2CB" stroke="#2E333A" mask="url(#path-1-inside-1_103_4708)"/>
</svg>
