<svg width="38" height="30" viewBox="0 0 38 30" fill="none" xmlns="http://www.w3.org/2000/svg">
<mask id="path-1-inside-1_103_3496" fill="white">
<path d="M14.4659 0L13.4069 0.127457C13.4069 0.127457 8.65573 0.64678 5.1859 3.43322H5.14522L5.10183 3.4739C4.32353 4.18983 3.98455 5.06983 3.44895 6.35661C2.81761 7.90476 2.28014 9.48956 1.83946 11.1024C0.833361 14.7403 0.0170898 19.1471 0.0170898 23.1783L0.0170898 23.5173L0.186581 23.8563C1.44217 26.0597 3.67133 27.463 5.73777 28.4325C7.80285 29.402 9.58861 29.9159 10.8225 29.958L11.6279 30L12.051 29.28L13.5344 26.6522C15.1073 27.0075 16.9188 27.2461 19.0001 27.2461C21.0815 27.2461 22.893 27.0075 24.4659 26.6522L25.9493 29.28L26.3737 30L27.1778 29.958C28.4117 29.9159 30.1974 29.402 32.2625 28.4325C34.3289 27.463 36.5581 26.0597 37.8137 23.8563L37.9832 23.5173V23.1783C37.9832 19.1471 37.1669 14.7403 36.1608 11.1024C35.7201 9.48956 35.1827 7.90476 34.5513 6.35661C34.0157 5.06847 33.6767 4.18983 32.8984 3.47525L32.8564 3.43186H32.813C29.3459 0.646779 24.5934 0.127457 24.5934 0.127457L23.5344 0L23.152 0.974915C23.152 0.974915 22.7601 1.96475 22.5174 3.09424C21.3517 2.9334 20.1768 2.84825 19.0001 2.83932C18.2747 2.83932 17.0205 2.88678 15.4828 3.09424C15.2388 1.96475 14.8469 0.974915 14.8469 0.974915L14.4659 0ZM12.6015 3.09424C12.6598 3.28407 12.7181 3.44814 12.771 3.60271C11.0178 4.03661 9.14793 4.6983 7.43268 5.76271L8.87268 8.05152C12.39 5.86847 17.4422 5.55119 19.0001 5.55119C20.5567 5.55119 25.6103 5.86847 29.1276 8.05152L30.5676 5.76271C28.8523 4.6983 26.9825 4.03661 25.2293 3.60136C25.2822 3.44814 25.3405 3.28407 25.3988 3.09288C26.6639 3.3478 29.0801 3.93085 31.0761 5.50915C31.0652 5.51458 31.5845 6.2983 32.051 7.41559C32.5283 8.56542 33.0571 10.0963 33.5344 11.8224C34.451 15.1322 35.171 19.1634 35.2293 22.7119C34.375 24.0149 32.7927 25.1905 31.1181 25.9756C30.0679 26.4719 28.9569 26.8275 27.8137 27.0332L27.1357 25.8902C27.5384 25.741 27.9357 25.5783 28.2801 25.4237C30.3669 24.5071 31.5005 23.5173 31.5005 23.5173L29.7201 21.4834C29.7201 21.4834 28.9581 22.1831 27.1778 22.9668C25.4001 23.7505 22.6815 24.5342 19.0001 24.5342C15.3188 24.5342 12.6015 23.7505 10.8225 22.9668C9.04217 22.1831 8.28014 21.4834 8.28014 21.4834L6.4998 23.5173C6.4998 23.5173 7.63336 24.5071 9.72014 25.4237C10.0645 25.5783 10.4618 25.7424 10.8645 25.8902L10.1866 27.0346C9.04282 26.8281 7.9313 26.4715 6.88082 25.9742C5.2076 25.1905 3.62387 24.0149 2.77234 22.7119C2.82929 19.1634 3.54929 15.1322 4.46726 11.8224C4.87289 10.3252 5.36778 8.85363 5.94929 7.41559C6.41573 6.2983 6.93505 5.51458 6.92421 5.50915C8.92014 3.93085 11.3364 3.3478 12.6015 3.09424ZM14.2544 12.3308C13.2062 12.3308 12.2788 12.9288 11.712 13.6868C11.1452 14.4447 10.8645 15.3763 10.8645 16.3986C10.8645 17.421 11.1452 18.3525 11.712 19.1105C12.2788 19.8685 13.2062 20.4664 14.2544 20.4664C15.3025 20.4664 16.23 19.8685 16.7967 19.1105C17.3635 18.3525 17.6442 17.421 17.6442 16.3986C17.6442 15.3763 17.3635 14.4447 16.7967 13.6868C16.23 12.9288 15.3025 12.3308 14.2544 12.3308ZM23.7459 12.3308C22.6978 12.3308 21.7703 12.9288 21.2035 13.6868C20.6367 14.4447 20.3561 15.3763 20.3561 16.3986C20.3561 17.421 20.6367 18.3525 21.2035 19.1105C21.7703 19.8685 22.6978 20.4664 23.7459 20.4664C24.794 20.4664 25.7215 19.8685 26.2883 19.1105C26.855 18.3525 27.1357 17.421 27.1357 16.3986C27.1357 15.3763 26.855 14.4447 26.2883 13.6868C25.7215 12.9288 24.794 12.3308 23.7459 12.3308ZM14.2544 15.0427C14.329 15.0427 14.4239 15.0698 14.5934 15.2976C14.7628 15.5241 14.9323 15.9214 14.9323 16.3986C14.9323 16.8759 14.7628 17.2732 14.5934 17.501C14.4239 17.7275 14.329 17.7546 14.2544 17.7546C14.1798 17.7546 14.0849 17.7275 13.9154 17.4997C13.6912 17.1766 13.5727 16.7919 13.5764 16.3986C13.5764 15.9214 13.7459 15.5241 13.9154 15.2963C14.0849 15.0698 14.1798 15.0427 14.2544 15.0427ZM23.7459 15.0427C23.8205 15.0427 23.9154 15.0698 24.0849 15.2976C24.2544 15.5241 24.4239 15.9214 24.4239 16.3986C24.4239 16.8759 24.2544 17.2732 24.0849 17.501C23.9154 17.7275 23.8205 17.7546 23.7459 17.7546C23.6713 17.7546 23.5764 17.7275 23.4069 17.4997C23.1827 17.1766 23.0642 16.7919 23.0679 16.3986C23.0679 15.9214 23.2374 15.5241 23.4069 15.2963C23.5764 15.0698 23.6713 15.0427 23.7459 15.0427Z"/>
</mask>
<path d="M14.4659 0L13.4069 0.127457C13.4069 0.127457 8.65573 0.64678 5.1859 3.43322H5.14522L5.10183 3.4739C4.32353 4.18983 3.98455 5.06983 3.44895 6.35661C2.81761 7.90476 2.28014 9.48956 1.83946 11.1024C0.833361 14.7403 0.0170898 19.1471 0.0170898 23.1783L0.0170898 23.5173L0.186581 23.8563C1.44217 26.0597 3.67133 27.463 5.73777 28.4325C7.80285 29.402 9.58861 29.9159 10.8225 29.958L11.6279 30L12.051 29.28L13.5344 26.6522C15.1073 27.0075 16.9188 27.2461 19.0001 27.2461C21.0815 27.2461 22.893 27.0075 24.4659 26.6522L25.9493 29.28L26.3737 30L27.1778 29.958C28.4117 29.9159 30.1974 29.402 32.2625 28.4325C34.3289 27.463 36.5581 26.0597 37.8137 23.8563L37.9832 23.5173V23.1783C37.9832 19.1471 37.1669 14.7403 36.1608 11.1024C35.7201 9.48956 35.1827 7.90476 34.5513 6.35661C34.0157 5.06847 33.6767 4.18983 32.8984 3.47525L32.8564 3.43186H32.813C29.3459 0.646779 24.5934 0.127457 24.5934 0.127457L23.5344 0L23.152 0.974915C23.152 0.974915 22.7601 1.96475 22.5174 3.09424C21.3517 2.9334 20.1768 2.84825 19.0001 2.83932C18.2747 2.83932 17.0205 2.88678 15.4828 3.09424C15.2388 1.96475 14.8469 0.974915 14.8469 0.974915L14.4659 0ZM12.6015 3.09424C12.6598 3.28407 12.7181 3.44814 12.771 3.60271C11.0178 4.03661 9.14793 4.6983 7.43268 5.76271L8.87268 8.05152C12.39 5.86847 17.4422 5.55119 19.0001 5.55119C20.5567 5.55119 25.6103 5.86847 29.1276 8.05152L30.5676 5.76271C28.8523 4.6983 26.9825 4.03661 25.2293 3.60136C25.2822 3.44814 25.3405 3.28407 25.3988 3.09288C26.6639 3.3478 29.0801 3.93085 31.0761 5.50915C31.0652 5.51458 31.5845 6.2983 32.051 7.41559C32.5283 8.56542 33.0571 10.0963 33.5344 11.8224C34.451 15.1322 35.171 19.1634 35.2293 22.7119C34.375 24.0149 32.7927 25.1905 31.1181 25.9756C30.0679 26.4719 28.9569 26.8275 27.8137 27.0332L27.1357 25.8902C27.5384 25.741 27.9357 25.5783 28.2801 25.4237C30.3669 24.5071 31.5005 23.5173 31.5005 23.5173L29.7201 21.4834C29.7201 21.4834 28.9581 22.1831 27.1778 22.9668C25.4001 23.7505 22.6815 24.5342 19.0001 24.5342C15.3188 24.5342 12.6015 23.7505 10.8225 22.9668C9.04217 22.1831 8.28014 21.4834 8.28014 21.4834L6.4998 23.5173C6.4998 23.5173 7.63336 24.5071 9.72014 25.4237C10.0645 25.5783 10.4618 25.7424 10.8645 25.8902L10.1866 27.0346C9.04282 26.8281 7.9313 26.4715 6.88082 25.9742C5.2076 25.1905 3.62387 24.0149 2.77234 22.7119C2.82929 19.1634 3.54929 15.1322 4.46726 11.8224C4.87289 10.3252 5.36778 8.85363 5.94929 7.41559C6.41573 6.2983 6.93505 5.51458 6.92421 5.50915C8.92014 3.93085 11.3364 3.3478 12.6015 3.09424ZM14.2544 12.3308C13.2062 12.3308 12.2788 12.9288 11.712 13.6868C11.1452 14.4447 10.8645 15.3763 10.8645 16.3986C10.8645 17.421 11.1452 18.3525 11.712 19.1105C12.2788 19.8685 13.2062 20.4664 14.2544 20.4664C15.3025 20.4664 16.23 19.8685 16.7967 19.1105C17.3635 18.3525 17.6442 17.421 17.6442 16.3986C17.6442 15.3763 17.3635 14.4447 16.7967 13.6868C16.23 12.9288 15.3025 12.3308 14.2544 12.3308ZM23.7459 12.3308C22.6978 12.3308 21.7703 12.9288 21.2035 13.6868C20.6367 14.4447 20.3561 15.3763 20.3561 16.3986C20.3561 17.421 20.6367 18.3525 21.2035 19.1105C21.7703 19.8685 22.6978 20.4664 23.7459 20.4664C24.794 20.4664 25.7215 19.8685 26.2883 19.1105C26.855 18.3525 27.1357 17.421 27.1357 16.3986C27.1357 15.3763 26.855 14.4447 26.2883 13.6868C25.7215 12.9288 24.794 12.3308 23.7459 12.3308ZM14.2544 15.0427C14.329 15.0427 14.4239 15.0698 14.5934 15.2976C14.7628 15.5241 14.9323 15.9214 14.9323 16.3986C14.9323 16.8759 14.7628 17.2732 14.5934 17.501C14.4239 17.7275 14.329 17.7546 14.2544 17.7546C14.1798 17.7546 14.0849 17.7275 13.9154 17.4997C13.6912 17.1766 13.5727 16.7919 13.5764 16.3986C13.5764 15.9214 13.7459 15.5241 13.9154 15.2963C14.0849 15.0698 14.1798 15.0427 14.2544 15.0427ZM23.7459 15.0427C23.8205 15.0427 23.9154 15.0698 24.0849 15.2976C24.2544 15.5241 24.4239 15.9214 24.4239 16.3986C24.4239 16.8759 24.2544 17.2732 24.0849 17.501C23.9154 17.7275 23.8205 17.7546 23.7459 17.7546C23.6713 17.7546 23.5764 17.7275 23.4069 17.4997C23.1827 17.1766 23.0642 16.7919 23.0679 16.3986C23.0679 15.9214 23.2374 15.5241 23.4069 15.2963C23.5764 15.0698 23.6713 15.0427 23.7459 15.0427Z" fill="#B2C2CB" stroke="#2E333A" stroke-width="0.8" mask="url(#path-1-inside-1_103_3496)"/>
</svg>
