<svg width="21" height="21" viewBox="0 0 21 21" fill="none" xmlns="http://www.w3.org/2000/svg">
<path d="M15.492 2.48266L15.4937 2.58265L15.5937 2.5809L17.8156 2.54212C18.9824 2.52175 19.9542 3.46017 19.9745 4.62698L19.9939 5.73792C20.0425 8.51879 17.9882 10.825 15.2985 11.2104L15.2413 11.2186L15.2198 11.2723C14.5611 12.9206 13.1097 14.1791 11.338 14.5701L11.2582 14.5877L11.2596 14.6695L11.3197 18.1134L11.3214 18.2134L11.4214 18.2117L14.7543 18.1535C15.3126 18.1437 15.7731 18.5884 15.7829 19.1468C15.7926 19.7051 15.3479 20.1657 14.7895 20.1754L5.90201 20.3305C5.34368 20.3403 4.88316 19.8956 4.87341 19.3372C4.86366 18.7789 5.30839 18.3184 5.86672 18.3086L9.19955 18.2504L9.29953 18.2487L9.29779 18.1487L9.23767 14.7048L9.23624 14.623L9.15582 14.6082C7.37159 14.2793 5.87712 13.0722 5.1613 11.4478L5.13798 11.3949L5.08051 11.3887C2.37895 11.0975 0.245483 8.86435 0.196943 6.08348L0.177551 4.97254C0.157184 3.80572 1.0956 2.83397 2.26241 2.8136L4.4843 2.77482L4.58428 2.77307L4.58254 2.67309C4.56208 1.5012 5.4955 0.534608 6.6674 0.514153L13.333 0.397804C14.505 0.377348 15.4715 1.31077 15.492 2.48266ZM2.2977 4.83552L2.19772 4.83726L2.19947 4.93725L2.21886 6.04819C2.24484 7.53697 3.22872 8.7782 4.56301 9.23512L4.69788 9.28131L4.69539 9.13877L4.62132 4.89497L4.61957 4.79499L4.51959 4.79673L2.2977 4.83552ZM6.70269 2.53607L6.6027 2.53781L6.60445 2.6378L6.7208 9.30345C6.75376 11.1917 8.32526 12.7093 10.2135 12.6763C12.1018 12.6434 13.6194 11.0719 13.5864 9.18361L13.4701 2.51796L13.4683 2.41797L13.3683 2.41972L6.70269 2.53607ZM15.6048 8.94835L15.6073 9.09088L15.7405 9.04002C17.058 8.5368 17.998 7.262 17.972 5.77322L17.9526 4.66228L17.9509 4.56229L17.8509 4.56404L15.629 4.60282L15.529 4.60456L15.5308 4.70455L15.6048 8.94835Z" fill="#0ED2F6" stroke="#2E333A" stroke-width="0.2"/>
</svg>
