<svg width="38" height="30" viewBox="0 0 38 30" fill="none" xmlns="http://www.w3.org/2000/svg">
<path d="M16.7731 7.58455V7.90368L17.0908 7.93306C19.8023 8.18378 24.8855 9.03283 29.2818 11.9153C33.6566 14.7837 37.3731 19.6774 37.3731 28.0909H37.373L37.3732 28.0988C37.3805 28.4232 37.2839 28.7414 37.0977 29.0071C36.9118 29.2724 36.6461 29.4714 36.3394 29.5753C36.0377 29.6734 35.7129 29.6749 35.4103 29.5795C35.1072 29.4839 34.8416 29.2959 34.6507 29.0418L34.6429 29.0314L34.6343 29.0216C32.653 26.7559 30.2023 24.9485 27.4524 23.7248C24.7033 22.5016 21.721 21.891 18.7124 21.9355H17.1231H16.7731V22.2855V28.0903C16.7717 28.3894 16.6822 28.6814 16.5159 28.9299C16.3495 29.1787 16.1134 29.3729 15.8372 29.4883C15.561 29.6036 15.2569 29.635 14.9629 29.5785C14.6695 29.5221 14.3992 29.3807 14.1857 29.1718C14.1852 29.1714 14.1848 29.171 14.1844 29.1706L1.07781 16.064L1.07679 16.063C0.934065 15.9214 0.820782 15.753 0.743476 15.5674C0.666169 15.3819 0.626367 15.1828 0.626367 14.9818C0.626367 14.7808 0.666169 14.5818 0.743476 14.3962C0.820783 14.2107 0.934065 14.0422 1.07679 13.9007L1.0778 13.8997L14.1859 0.791588C14.1861 0.791427 14.1862 0.791267 14.1864 0.791106C14.4698 0.510264 14.8521 0.351873 15.2511 0.35C15.6547 0.350195 16.0417 0.510604 16.3271 0.795996C16.6126 1.08156 16.7731 1.46888 16.7731 1.87273V7.58455ZM18.7138 18.8526L18.7166 18.8526C23.9096 18.8272 28.9721 20.478 33.1519 23.5597L33.9357 24.1376L33.6991 23.193C32.2024 17.2156 27.9932 14.1349 23.9765 12.5563C19.9682 10.981 16.1207 10.8864 15.2503 10.8864C14.8465 10.8864 14.4592 10.7259 14.1736 10.4404C13.888 10.1548 13.7276 9.76749 13.7276 9.36364V6.386V5.53972L13.1298 6.13879L4.55274 14.7346L4.30607 14.9818L4.55274 15.229L13.1298 23.8249L13.7276 24.4239V23.5777V20.6L13.7276 20.5996C13.7271 20.2349 13.8575 19.8823 14.095 19.6056C14.3319 19.3297 14.6597 19.1477 15.019 19.0925C16.2437 18.9289 17.4782 18.8487 18.7138 18.8526Z" fill="#B2C2CB" stroke="#2E333A" stroke-width="0.7"/>
</svg>
