<svg width="42" height="32" viewBox="0 0 42 32" fill="none" xmlns="http://www.w3.org/2000/svg">
<path d="M9.29177 5.71797L9.41648 5.68423L9.43701 5.55668C9.81702 3.19488 11.7586 1.35901 14.2212 1.31602C16.5451 1.27546 18.4616 2.85001 19.0649 4.99585L19.1066 5.14438L19.2609 5.14169L22.3583 5.08763L22.5124 5.08494L22.5491 4.93514C23.0783 2.76942 24.9388 1.12894 27.2627 1.08838C29.7253 1.0454 31.7298 2.81495 32.192 5.15824L32.2168 5.28434L32.3419 5.31411C34.7697 5.89205 36.8412 7.42561 37.8112 9.63072L37.8113 9.63385L37.8128 9.72047L37.877 9.77862L37.8836 9.78459L40.9851 18.0014L40.9847 18.0016L40.9899 18.013C41.4715 19.081 41.7474 20.2651 41.7691 21.5079C41.8549 26.4236 37.9116 30.507 32.9959 30.5928C28.5678 30.6701 24.8188 27.4793 24.056 23.2526L23.9873 22.8721L23.7165 23.148C23.0524 23.8242 22.149 24.2594 21.1447 24.2769C20.1403 24.2945 19.221 23.891 18.5353 23.2386L18.255 22.9719L18.1995 23.3548C17.5834 27.6057 13.9492 30.9253 9.52119 31.0026C4.60544 31.0884 0.522069 27.1451 0.436264 22.2294C0.411882 20.8325 0.726413 19.4989 1.28412 18.3052L1.28887 18.2951L1.29246 18.2844L3.88552 10.5878L3.92299 10.5872L3.96895 10.4556C4.83797 7.96795 6.88953 6.36777 9.29177 5.71797ZM24.542 6.15403L24.5613 7.25821L17.1363 7.38781L17.117 6.28363C17.1027 5.46117 16.8096 4.76097 16.3009 4.26973C15.7922 3.77849 15.0822 3.51002 14.2597 3.52438C13.4373 3.53874 12.7371 3.83181 12.2458 4.34051C11.7546 4.84921 11.4861 5.55921 11.5005 6.38167L11.518 7.38293L10.5176 7.50441L10.5172 7.50445C8.44253 7.75995 6.79831 9.03087 6.05187 11.137L6.03978 11.1711L6.04041 11.2073L6.04047 11.2107L5.1204 13.844L4.95791 14.3091L5.3986 14.0889C6.55053 13.5133 7.84319 13.1683 9.20948 13.1444C12.9362 13.0794 16.1677 15.3403 17.5597 18.5817L17.7112 18.9347L17.9135 18.6081C18.5573 17.5686 19.7115 16.8747 21.0151 16.852C22.32 16.8292 23.4977 17.4836 24.1762 18.4976L24.3898 18.8168L24.5288 18.4587C25.8055 15.1708 28.9561 12.7984 32.6841 12.7334C34.0664 12.7092 35.3808 13.0351 36.5644 13.5848L37.0061 13.79L36.836 13.3336L35.8095 10.5793L35.8089 10.5775C35.7991 10.5522 35.788 10.5303 35.7801 10.5152C35.7771 10.5095 35.7747 10.5049 35.7727 10.501C35.7685 10.4931 35.7657 10.4879 35.7628 10.4819C34.9514 8.69187 33.2 7.32022 31.1803 7.14376L31.18 7.14374L30.176 7.05725L30.1585 6.05599C30.1442 5.23353 29.8511 4.53334 29.3424 4.04209C28.8337 3.55085 28.1237 3.28238 27.3012 3.29674C26.4788 3.3111 25.7786 3.60417 25.2873 4.11287C24.7961 4.62157 24.5276 5.33157 24.542 6.15403ZM3.22427 19.3651L3.22426 19.3651L3.2233 19.3673C3.20167 19.418 3.19457 19.4703 3.1911 19.4958L3.19052 19.5001C3.18683 19.5267 3.18524 19.5336 3.18538 19.5336C2.84913 20.3529 2.62792 21.2341 2.64462 22.1908C2.70967 25.9176 5.7558 28.8593 9.48265 28.7942C13.2095 28.7292 16.1511 25.683 16.0861 21.9562C16.021 18.2293 12.9749 15.2877 9.24803 15.3528C6.53215 15.4002 4.24816 17.0437 3.22427 19.3651ZM39.5607 21.5464C39.4957 17.8196 36.4496 14.878 32.7227 14.943C28.9959 15.0081 26.0543 18.0542 26.1193 21.7811C26.1844 25.5079 29.2305 28.4495 32.9573 28.3845C36.6842 28.3194 39.6258 25.2733 39.5607 21.5464ZM22.584 20.5382C22.5693 19.6922 21.8996 19.0456 21.0537 19.0603C20.2077 19.0751 19.561 19.7447 19.5758 20.5907C19.5906 21.4367 20.2602 22.0834 21.1062 22.0686C21.9521 22.0538 22.5988 21.3842 22.584 20.5382Z" fill="white" stroke="#2E333A" stroke-width="0.4"/>
</svg>
