<svg width="30" height="30" viewBox="0 0 30 30" fill="none" xmlns="http://www.w3.org/2000/svg">
<path d="M14.4271 4.46392L14.2143 4.11549L14.0007 4.46343L10.9507 9.43139L10.7169 9.81219H11.1638H17.2479H17.6936L17.4613 9.43188L14.4271 4.46392ZM15.3419 0.882696L15.5552 0.752339L15.3419 0.882701L21.1854 10.4449C21.7238 11.3259 21.0898 12.4565 20.0572 12.4565H8.37016C7.33766 12.4565 6.7036 11.3259 7.24199 10.4449L13.0855 0.882702L12.8722 0.752339L13.0855 0.882696C13.601 0.0391015 14.8264 0.0391012 15.3419 0.882696ZM3.20873 19.5311H2.95873V19.7811V26.0697V26.3197H3.20873H9.49729H9.74729V26.0697V19.7811V19.5311H9.49729H3.20873ZM16.0358 22.9254C16.0358 19.1488 19.0839 16.1007 22.8605 16.1007C26.637 16.1007 29.6851 19.1488 29.6851 22.9254C29.6851 26.7019 26.637 29.75 22.8605 29.75C19.0839 29.75 16.0358 26.7019 16.0358 22.9254ZM18.6801 22.9254C18.6801 25.233 20.5529 27.1057 22.8605 27.1057C25.1681 27.1057 27.0408 25.233 27.0408 22.9254C27.0408 20.6177 25.1681 18.745 22.8605 18.745C20.5529 18.745 18.6801 20.6177 18.6801 22.9254ZM3.20873 28.9639C1.61026 28.9639 0.314453 27.6682 0.314453 26.0697L0.314453 19.7811C0.314453 18.1826 1.61026 16.8868 3.20873 16.8868H9.49729C11.0958 16.8868 12.3916 18.1826 12.3916 19.7811V26.0697C12.3916 27.6682 11.0958 28.9639 9.49729 28.9639H3.20873Z" fill="#B2C2CB" stroke="#2E333A" stroke-width="0.5"/>
</svg>
