<svg width="24" height="19" viewBox="0 0 24 19" fill="none" xmlns="http://www.w3.org/2000/svg">
<g id="Group 33537">
<path id="Vector" d="M20.2491 18.4933C20.1506 18.4934 20.0531 18.4741 19.9621 18.4363C19.8711 18.3986 19.7884 18.3432 19.719 18.2734L3.21896 1.77341C3.08425 1.63162 3.01025 1.44281 3.01276 1.24723C3.01526 1.05166 3.09406 0.864807 3.23237 0.726506C3.37067 0.588205 3.55752 0.509401 3.75309 0.506897C3.94867 0.504394 4.13748 0.578387 4.27927 0.713102L20.7793 17.2131C20.8841 17.318 20.9555 17.4516 20.9844 17.597C21.0133 17.7425 20.9984 17.8932 20.9417 18.0302C20.885 18.1672 20.7889 18.2843 20.6656 18.3668C20.5423 18.4492 20.3974 18.4932 20.2491 18.4933ZM11.6241 12.2987L9.19646 9.87107C9.18255 9.85728 9.16467 9.84819 9.14533 9.84508C9.12598 9.84197 9.10615 9.845 9.08862 9.85374C9.07109 9.86248 9.05673 9.87649 9.04757 9.89381C9.03842 9.91113 9.03491 9.93088 9.03756 9.95029C9.13556 10.5801 9.43129 11.1625 9.88201 11.6132C10.3327 12.0639 10.9151 12.3596 11.5449 12.4576C11.5643 12.4603 11.5841 12.4568 11.6014 12.4476C11.6187 12.4385 11.6327 12.4241 11.6415 12.4066C11.6502 12.389 11.6532 12.3692 11.6501 12.3499C11.647 12.3305 11.6379 12.3126 11.6241 12.2987ZM12.3741 6.68779L14.8055 9.11826C14.8194 9.13225 14.8373 9.14151 14.8568 9.14473C14.8762 9.14794 14.8962 9.14496 14.9138 9.13619C14.9315 9.12742 14.9459 9.11331 14.9551 9.09587C14.9642 9.07843 14.9677 9.05855 14.9649 9.03904C14.8671 8.40836 14.5712 7.82516 14.1199 7.37387C13.6686 6.92259 13.0854 6.62664 12.4547 6.52888C12.4352 6.52587 12.4152 6.52911 12.3976 6.53813C12.3801 6.54715 12.3658 6.5615 12.3568 6.57912C12.3479 6.59674 12.3448 6.61674 12.3479 6.63626C12.351 6.65577 12.3602 6.67381 12.3741 6.68779Z" fill="#72E4F9"/>
<path id="Vector_2" d="M23.0146 10.3069C23.1698 10.0633 23.2519 9.78035 23.251 9.49154C23.2502 9.20273 23.1665 8.92022 23.01 8.67754C21.7696 6.75941 20.1604 5.13004 18.3567 3.9652C16.3584 2.6752 14.1553 1.99316 11.984 1.99316C10.8394 1.99474 9.70253 2.18136 8.61746 2.54582C8.58709 2.55592 8.55981 2.57363 8.53822 2.59725C8.51663 2.62088 8.50145 2.64964 8.49412 2.68079C8.48679 2.71195 8.48755 2.74446 8.49634 2.77523C8.50513 2.80601 8.52165 2.83402 8.54433 2.8566L10.7587 5.07098C10.7817 5.09402 10.8103 5.11068 10.8417 5.11931C10.8731 5.12794 10.9062 5.12825 10.9378 5.1202C11.6884 4.93728 12.4734 4.95068 13.2173 5.15912C13.9612 5.36755 14.6389 5.76399 15.1852 6.31026C15.7315 6.85654 16.1279 7.53426 16.3363 8.27816C16.5448 9.02207 16.5582 9.80711 16.3753 10.5577C16.3673 10.5892 16.3677 10.6222 16.3763 10.6535C16.3849 10.6848 16.4015 10.7133 16.4245 10.7363L19.6096 13.9238C19.6428 13.957 19.6872 13.9766 19.734 13.9786C19.7809 13.9807 19.8268 13.9652 19.8628 13.935C21.0888 12.89 22.1513 11.667 23.0146 10.3069ZM11.999 13.9932C11.3178 13.9932 10.6455 13.8386 10.0327 13.541C9.41996 13.2433 8.88277 12.8105 8.46165 12.275C8.04053 11.7396 7.74647 11.1155 7.60164 10.4499C7.45681 9.78423 7.465 9.0944 7.62558 8.43238C7.63355 8.4009 7.6332 8.36789 7.62457 8.33658C7.61594 8.30528 7.59933 8.27675 7.57636 8.25379L4.44324 5.11926C4.41002 5.086 4.36551 5.06643 4.31854 5.06443C4.27158 5.06244 4.22557 5.07816 4.18965 5.10848C3.04636 6.08395 1.98652 7.27082 1.01761 8.65785C0.848014 8.90128 0.754608 9.18963 0.749266 9.48626C0.743924 9.78289 0.826888 10.0744 0.987615 10.3238C2.22558 12.2611 3.8184 13.8929 5.59449 15.0418C7.59558 16.3369 9.74527 16.9932 11.984 16.9932C13.1402 16.9901 14.2889 16.8074 15.389 16.4518C15.4197 16.442 15.4473 16.4245 15.4692 16.4009C15.4911 16.3774 15.5066 16.3486 15.5142 16.3173C15.5218 16.2861 15.5212 16.2534 15.5125 16.2224C15.5038 16.1915 15.4872 16.1632 15.4645 16.1405L13.2393 13.9158C13.2164 13.8929 13.1878 13.8762 13.1565 13.8676C13.1252 13.859 13.0922 13.8586 13.0607 13.8666C12.7131 13.9508 12.3567 13.9933 11.999 13.9932Z" fill="#72E4F9"/>
</g>
</svg>
