<svg width="24" height="15" viewBox="0 0 24 15" fill="none" xmlns="http://www.w3.org/2000/svg">
<g id="Group 33536">
<path id="Vector" d="M12.0009 10.5C13.6577 10.5 15.0009 9.15685 15.0009 7.5C15.0009 5.84315 13.6577 4.5 12.0009 4.5C10.344 4.5 9.00085 5.84315 9.00085 7.5C9.00085 9.15685 10.344 10.5 12.0009 10.5Z" fill="#72E4F9"/>
<path id="Vector_2" d="M23.0089 6.68438C21.7686 4.76625 20.1594 3.13688 18.3557 1.97203C16.3602 0.682032 14.1571 0 11.9849 0C9.99175 0 8.03191 0.569531 6.15972 1.69266C4.2505 2.83781 2.52081 4.51078 1.01847 6.66469C0.848868 6.90811 0.755462 7.19646 0.750121 7.49309C0.744779 7.78973 0.827742 8.08125 0.988469 8.33063C2.22644 10.268 3.81972 11.8997 5.59534 13.0486C7.59456 14.3438 9.74613 15 11.9849 15C14.1744 15 16.3822 14.3236 18.3692 13.0444C20.1721 11.8833 21.778 10.2478 23.0136 8.31375C23.1688 8.07017 23.2509 7.78719 23.25 7.49838C23.2492 7.20956 23.1655 6.92705 23.0089 6.68438ZM12.0008 12C11.1108 12 10.2408 11.7361 9.50075 11.2416C8.76073 10.7471 8.18395 10.0443 7.84335 9.22208C7.50276 8.39981 7.41365 7.49501 7.58728 6.62209C7.76091 5.74918 8.1895 4.94736 8.81883 4.31802C9.44817 3.68868 10.25 3.2601 11.1229 3.08647C11.9958 2.91283 12.9006 3.00195 13.7229 3.34254C14.5452 3.68314 15.248 4.25991 15.7424 4.99993C16.2369 5.73995 16.5008 6.60998 16.5008 7.5C16.4994 8.69306 16.0249 9.83685 15.1813 10.6805C14.3377 11.5241 13.1939 11.9986 12.0008 12Z" fill="#72E4F9"/>
</g>
</svg>
